<?xml version="1.0" encoding="UTF-8" standalone="no"?>
<!-- Created with Inkscape (http://www.inkscape.org/) -->

<svg
   xmlns:dc="http://purl.org/dc/elements/1.1/"
   xmlns:cc="http://creativecommons.org/ns#"
   xmlns:rdf="http://www.w3.org/1999/02/22-rdf-syntax-ns#"
   xmlns:svg="http://www.w3.org/2000/svg"
   xmlns="http://www.w3.org/2000/svg"
   xmlns:sodipodi="http://sodipodi.sourceforge.net/DTD/sodipodi-0.dtd"
   xmlns:inkscape="http://www.inkscape.org/namespaces/inkscape"
   width="684.57678"
   height="683.55737"
   id="svg2"
   version="1.1"
   inkscape:version="0.91 r13725"
   sodipodi:docname="Pacghost_512.svg">
  <defs
     id="defs4">
    <inkscape:perspective
       sodipodi:type="inkscape:persp3d"
       inkscape:vp_x="0 : 526.18109 : 1"
       inkscape:vp_y="0 : 1000 : 0"
       inkscape:vp_z="744.09448 : 526.18109 : 1"
       inkscape:persp3d-origin="372.04724 : 350.78739 : 1"
       id="perspective10" />
    <inkscape:perspective
       id="perspective2824"
       inkscape:persp3d-origin="0.5 : 0.33333333 : 1"
       inkscape:vp_z="1 : 0.5 : 1"
       inkscape:vp_y="0 : 1000 : 0"
       inkscape:vp_x="0 : 0.5 : 1"
       sodipodi:type="inkscape:persp3d" />
    <inkscape:perspective
       id="perspective3619"
       inkscape:persp3d-origin="0.5 : 0.33333333 : 1"
       inkscape:vp_z="1 : 0.5 : 1"
       inkscape:vp_y="0 : 1000 : 0"
       inkscape:vp_x="0 : 0.5 : 1"
       sodipodi:type="inkscape:persp3d" />
  </defs>
  <sodipodi:namedview
     id="base"
     pagecolor="#ffffff"
     bordercolor="#666666"
     borderopacity="1.0"
     inkscape:pageopacity="0.0"
     inkscape:pageshadow="2"
     inkscape:zoom="0.74317098"
     inkscape:cx="342.28839"
     inkscape:cy="341.77869"
     inkscape:document-units="px"
     inkscape:current-layer="layer1"
     showgrid="false"
     inkscape:window-width="1366"
     inkscape:window-height="705"
     inkscape:window-x="185"
     inkscape:window-y="1072"
     inkscape:window-maximized="1" />
  <metadata
     id="metadata7">
    <rdf:RDF>
      <cc:Work
         rdf:about="">
        <dc:format>image/svg+xml</dc:format>
        <dc:type
           rdf:resource="http://purl.org/dc/dcmitype/StillImage" />
        <dc:title></dc:title>
      </cc:Work>
    </rdf:RDF>
  </metadata>
  <g
     inkscape:label="Layer 1"
     inkscape:groupmode="layer"
     id="layer1"
     transform="translate(-20.895424,-174.8737)">
    <path
       sodipodi:type="arc"
       style="fill:#0070bb;fill-opacity:1;fill-rule:evenodd;stroke:#787878;stroke-width:0.80000001;stroke-linejoin:bevel;stroke-miterlimit:4;stroke-dasharray:none;stroke-dashoffset:0.479;stroke-opacity:1"
       id="path2837-1"
       sodipodi:cx="616.52161"
       sodipodi:cy="462.40366"
       sodipodi:rx="52.599346"
       sodipodi:ry="62.379128"
       d="m 669.12082,462.5413 a 52.599346,62.379128 0 0 1 -52.68626,62.2414 52.599346,62.379128 0 0 1 -52.51227,-62.44787 52.599346,62.379128 0 0 1 52.62833,-62.31029 52.599346,62.379128 0 0 1 52.57033,62.37912"
       sodipodi:start="0.0022066224"
       sodipodi:end="6.2831853"
       sodipodi:open="true" />
    <g
       id="g2830"
       transform="matrix(-1,0,0,1,739.16231,-12.794669)">
      <path
         style="fill:#eb1b24"
         d="m 254,871.22418 c -48.11838,-0.33817 -67.36013,-65.2276 -115.42399,-65.70996 -48.063859,-0.48236 -60.934227,55.8356 -104.442104,59.09646 -2.437323,-129.96113 4.8345,-278.56786 30.031723,-410.64527 3.768105,-19.75145 8.751607,-35.87515 13.348941,-54.76965 -1.668054,27.4118 -6.766029,43.13176 -6.116567,66.28509 -1.419315,52.84675 28.194609,113.60143 85.088687,122.30682 131.19795,8.96755 150.01523,-143.55132 89.46322,-229.73279 -67.10714,-55.84084 -139.11297,-18.02737 -168.26443,37.95763 6.870764,-22.05039 20.62049,-49.87621 26.86603,-60.66777 55.0839,-86.45994 164.21732,-150.64822 267.43649,-147.57019 109.42075,-2.65594 220.08527,55.84107 272.10713,153.53902 72.44485,159.97615 73.44904,345.21879 74.17176,519.08888 -55.1137,4.8898 -51.9518,-54.53715 -109.45321,-55.37913 -54.99211,-0.80523 -62.8215,64.19826 -118.71294,65.23782 C 439.93761,871.19416 423.78702,814.06746 372.85666,806.593 322.33947,806.11569 306.3021,871.59175 254,871.22418 Z M 574.52582,455.639 c 5.13971,-143.39135 -176.70135,-166.95187 -206.36533,-27.34756 -8.77297,54.14915 2.54858,122.71761 56.04286,150.01124 88.33144,40.57968 148.00394,-39.2382 150.32247,-122.66368 z"
         id="path2832"
         sodipodi:nodetypes="czcscccccccccsscscccc"
         inkscape:connector-curvature="0" />
    </g>
    <path
       sodipodi:type="arc"
       style="fill:#0070bb;fill-opacity:1;fill-rule:evenodd;stroke:#787878;stroke-width:0.80000001;stroke-linejoin:bevel;stroke-miterlimit:4;stroke-dasharray:none;stroke-dashoffset:0.479;stroke-opacity:1"
       id="path2837"
       sodipodi:cx="320.901"
       sodipodi:cy="468.02634"
       sodipodi:rx="52.599346"
       sodipodi:ry="62.379128"
       d="m 373.50022,468.16398 a 52.599346,62.379128 0 0 1 -52.68627,62.2414 52.599346,62.379128 0 0 1 -52.51226,-62.44787 52.599346,62.379128 0 0 1 52.62833,-62.31029 52.599346,62.379128 0 0 1 52.57033,62.37912"
       sodipodi:start="0.0022066224"
       sodipodi:end="6.2831853"
       sodipodi:open="true" />
  </g>
</svg>
